<svg xmlns="http://www.w3.org/2000/svg" x="0px" y="0px"
width="40" height="40"
viewBox="0 0 224 224"
style=" fill:#000000;"><g fill="none" fill-rule="nonzero" stroke="none" stroke-width="1" stroke-linecap="butt" stroke-linejoin="miter" stroke-miterlimit="10" stroke-dasharray="" stroke-dashoffset="0" font-family="none" font-weight="none" font-size="none" text-anchor="none" style="mix-blend-mode: normal"><path d="M0,224v-224h224v224z" fill="none"></path><g id="Слой_1" fill="#ffffff"><rect x="6" y="25" transform="scale(3.5,3.5)" width="8" height="2"></rect><path d="M167.769,182c-1.834,0 -3.6855,-0.441 -5.3935,-1.3335l-30.73,-16.044c-1.3405,-0.7035 -2.947,-0.7035 -4.2875,0l-30.73,16.044c-3.955,2.065 -8.6415,1.708 -12.236,-0.917c-3.57,-2.6005 -5.32,-6.9125 -4.571,-11.249l5.873,-33.978c0.2485,-1.4665 -0.238,-2.961 -1.3125,-4.0005l-24.864,-24.066c-3.178,-3.0765 -4.3085,-7.595 -2.9505,-11.795c1.365,-4.2245 4.9525,-7.245 9.366,-7.882l34.3595,-4.9595c1.498,-0.217 2.7895,-1.1445 3.4545,-2.485l15.365,-30.9155c1.9705,-3.955 5.95,-6.419 10.388,-6.419c4.438,0 8.4175,2.4605 10.388,6.419l15.365,30.9155c0.665,1.3405 1.96,2.268 3.4545,2.485l34.356,4.956c4.417,0.6405 8.0045,3.661 9.3695,7.8855c1.3615,4.2 0.2275,8.7185 -2.9505,11.795l-24.864,24.066c-1.0745,1.0395 -1.561,2.534 -1.3125,4.004l5.873,33.9745c0.749,4.3365 -1.001,8.6485 -4.571,11.249c-2.037,1.491 -4.431,2.2505 -6.839,2.2505zM129.5,157.094c1.848,0 3.6995,0.441 5.383,1.3195l30.73,16.044c1.596,0.8365 3.416,0.7 4.872,-0.364c1.421,-1.0395 2.0965,-2.6845 1.799,-4.4065l-5.873,-33.978c-0.6475,-3.7485 0.6055,-7.5705 3.3425,-10.22l24.864,-24.066c1.26,-1.225 1.694,-2.947 1.1585,-4.6095c-0.546,-1.687 -1.9355,-2.849 -3.7135,-3.1115l-34.3525,-4.9525c-3.7695,-0.5425 -7.0315,-2.898 -8.7255,-6.3l-15.365,-30.9155c-0.791,-1.5855 -2.3275,-2.534 -4.1195,-2.534c-1.792,0 -3.3285,0.9485 -4.1195,2.5375l-15.365,30.9155c-1.694,3.402 -4.956,5.7575 -8.7255,6.3l-34.356,4.956c-1.7745,0.2555 -3.1605,1.4175 -3.71,3.108c-0.5355,1.666 -0.1015,3.388 1.1585,4.6095l24.864,24.066c2.737,2.6495 3.99,6.4715 3.3425,10.2165l-5.873,33.9815c-0.2975,1.722 0.3745,3.367 1.799,4.4065c1.449,1.0675 3.2725,1.2005 4.872,0.364l30.73,-16.044c1.687,-0.882 3.535,-1.323 5.383,-1.323z"></path><rect x="12" y="19" transform="scale(3.5,3.5)" width="14" height="2"></rect><rect x="8" y="31" transform="scale(3.5,3.5)" width="6" height="2"></rect><rect x="12" y="37" transform="scale(3.5,3.5)" width="7" height="2"></rect><path d="M133.308,79.359l8.0675,16.2715c0.6195,1.246 1.813,2.1105 3.1955,2.3135l18.039,2.6075c3.4825,0.504 4.872,4.7635 2.352,7.21l-13.0515,12.6665c-1.001,0.9695 -1.456,2.3695 -1.2215,3.7415l3.08,17.885c0.595,3.4545 -3.045,6.0865 -6.16,4.4555l-16.135,-8.442c-1.2355,-0.6475 -2.716,-0.6475 -3.9515,0l-16.135,8.442c-3.115,1.631 -6.755,-1.0045 -6.16,-4.4555l3.08,-17.885c0.2345,-1.372 -0.2205,-2.772 -1.2215,-3.7415l-13.0515,-12.6665c-2.52,-2.4465 -1.1305,-6.706 2.352,-7.21l18.039,-2.6075c1.3825,-0.1995 2.5795,-1.064 3.1955,-2.3135l8.0675,-16.2715c1.561,-3.143 6.062,-3.143 7.6195,0z"></path><rect x="16" y="43" transform="scale(3.5,3.5)" width="5" height="2"></rect></g></g></svg>
